<?xml version="1.0" encoding="UTF-8" standalone="no"?>
<!-- Created with Inkscape (http://www.inkscape.org/) -->

<svg
        xmlns:dc="http://purl.org/dc/elements/1.1/"
        xmlns:cc="http://creativecommons.org/ns#"
        xmlns:rdf="http://www.w3.org/1999/02/22-rdf-syntax-ns#"
        xmlns:svg="http://www.w3.org/2000/svg"
        xmlns="http://www.w3.org/2000/svg"
        xmlns:sodipodi="http://sodipodi.sourceforge.net/DTD/sodipodi-0.dtd"
        xmlns:inkscape="http://www.inkscape.org/namespaces/inkscape"
        width="69.282455mm"
        height="74.523964mm"
        viewBox="0 0 245.48902 264.06129"
        id="svg2"
        version="1.1"
        inkscape:version="0.91 r13725"
        sodipodi:docname="logo.svg">
    <defs
            id="defs4" />
    <sodipodi:namedview
            id="base"
            pagecolor="#ffffff"
            bordercolor="#666666"
            borderopacity="1.0"
            inkscape:pageopacity="0.0"
            inkscape:pageshadow="2"
            inkscape:zoom="1.979899"
            inkscape:cx="83.54069"
            inkscape:cy="126.51944"
            inkscape:document-units="px"
            inkscape:current-layer="layer1"
            showgrid="false"
            inkscape:window-width="1557"
            inkscape:window-height="876"
            inkscape:window-x="0"
            inkscape:window-y="0"
            inkscape:window-maximized="1"
            fit-margin-top="4"
            fit-margin-left="4"
            fit-margin-right="4"
            fit-margin-bottom="4" />
    <metadata
            id="metadata7">
        <rdf:RDF>
            <cc:Work
                    rdf:about="">
                <dc:format>image/svg+xml</dc:format>
                <dc:type
                        rdf:resource="http://purl.org/dc/dcmitype/StillImage" />
                <dc:title></dc:title>
            </cc:Work>
        </rdf:RDF>
    </metadata>
    <g
            inkscape:label="Vrstva 1"
            inkscape:groupmode="layer"
            id="layer1"
            transform="translate(-260.11193,-449.61779)">
        <path
                style="fill:#cc0000;fill-opacity:1;stroke:none;stroke-opacity:1"
                d="m 274.28516,463.79102 0,235.71484 217.14257,0 0,-235.71484 -217.14257,0 z m 190.22656,4.83203 20,0 0,17.14257 -20,0 0,-17.14257 z m -180.22656,0.0254 20,0 0,17.14258 -20,0 0,-17.14258 z m 30,8 141.42968,0 0,97.14258 -141.42968,0 0,-97.14258 z m 150.08398,15.90429 20,0 0,17.14258 -20,0 0,-17.14258 z m -180.22656,0.0234 20,0 0,17.14258 -20,0 0,-17.14258 z m 180.08398,23.01172 20,0 0,17.14258 -20,0 0,-17.14258 z M 284,515.61133 l 20,0 0,17.14453 -20,0 0,-17.14453 z m 180.08398,23.90429 20,0 0,17.14258 -20,0 0,-17.14258 z m -180.22656,0.0254 20,0 0,17.14257 -20,0 0,-17.14257 z m 180.1543,22.92187 20,0 0,17.14258 -20,0 0,-17.14258 z m -180.22656,0.0234 20,0 0,17.14453 -20,0 0,-17.14453 z M 313,585.21875 l 141.42773,0 0,97.14258 -141.42773,0 0,-97.14258 z m 150.86914,1.17187 20,0 0,17.14258 -20,0 0,-17.14258 z m -180.22656,0.0254 20,0 0,17.14257 -20,0 0,-17.14257 z m 180.08398,23.01171 20,0 0,17.14258 -20,0 0,-17.14258 z m -180.22656,0.0234 20,0 0,17.14258 -20,0 0,-17.14258 z m 180.08203,23.9043 20,0 0,17.14258 -20,0 0,-17.14258 z m -180.22461,0.0254 20,0 0,17.14258 -20,0 0,-17.14258 z m 179.79688,22.20703 20,0 0,17.14258 -20,0 0,-17.14258 z m -180.22657,0.0234 20,0 0,17.14453 -20,0 0,-17.14453 z m 180.08399,23.90429 20,0 0,17.14258 -20,0 0,-17.14258 z m -180.22656,0.0254 20,0 0,17.14257 -20,0 0,-17.14257 z"
                id="rect4136"
                inkscape:connector-curvature="0" />
    </g>
</svg>
